# This file uses centimeters as units for non-parametric coordinates.

mtllib pasillo_normal.mtl
g default
v -11.623609 0.198209 51.872520
v 14.751822 0.198209 51.872520
v -11.623609 0.862820 51.872520
v 14.751822 0.862820 51.872520
v -11.623609 0.862820 -128.291840
v 14.751822 0.862820 -128.291840
v -11.623609 0.198209 -128.291840
v 14.751822 0.198209 -128.291840
v -11.623609 0.198209 52.081406
v 14.751822 0.198209 52.081406
v 14.751822 0.862820 52.081406
v -11.623609 0.862820 52.081406
v -11.623609 22.320545 51.872520
v 14.751822 22.320545 51.872520
v -11.623609 22.320545 52.081406
v 14.751822 22.320545 52.081406
v -12.240687 0.198209 -128.291840
v -12.240687 0.198209 51.872520
v -12.240687 0.862820 51.872520
v -12.240687 0.862820 -128.291840
v -11.623609 22.320545 51.872520
v -11.623609 22.320545 -128.291840
v -12.240687 22.320545 -128.291840
v -12.240687 22.320545 51.872520
v -11.623610 0.862820 16.560453
v -11.623609 0.198209 16.560455
v -12.240687 0.198209 16.560455
v -12.240687 0.862820 16.560453
v -11.623609 0.198209 7.753195
v -11.623610 0.862820 7.753193
v -12.240687 0.862820 7.753193
v -12.240687 0.198209 7.753195
v -11.623610 17.614260 16.560453
v -11.623610 17.614258 7.753193
v -12.240688 17.614260 7.753194
v -12.240687 17.614258 16.560453
v -11.623609 0.198209 -32.447266
v -11.623610 0.862820 -32.447269
v -11.623610 17.614258 -32.447269
v -12.240687 17.614258 -32.447266
v -12.240687 0.862820 -32.447269
v -12.240686 0.198209 -32.447266
v -11.623609 0.198209 -41.045387
v -11.623610 0.862820 -41.045387
v -11.623610 17.614258 -41.045387
v -12.240687 17.614258 -41.045387
v -12.240687 0.862820 -41.045387
v -12.240686 0.198209 -41.045387
v -11.623609 0.198209 -94.436119
v -11.623610 0.862820 -94.436119
v -11.623610 17.614258 -94.436119
v -12.240688 17.614258 -94.436119
v -12.240688 0.862820 -94.436119
v -12.240687 0.198209 -94.436119
v -11.623609 0.198209 -103.131577
v -11.623610 0.862820 -103.131577
v -11.623610 17.614258 -103.131577
v -12.240688 17.614258 -103.131577
v -12.240688 0.862820 -103.131577
v -12.240687 0.198209 -103.131577
vt 0.375000 0.000000
vt 0.625000 0.000000
vt 0.375000 0.250000
vt 0.625000 0.250000
vt 0.375000 0.500000
vt 0.625000 0.500000
vt 0.375000 0.750000
vt 0.625000 0.750000
vt 0.375000 1.000000
vt 0.625000 1.000000
vt 0.875000 0.000000
vt 0.875000 0.250000
vt 0.125000 0.000000
vt 0.125000 0.250000
vt 0.375000 0.000000
vt 0.625000 0.000000
vt 0.625000 0.250000
vt 0.375000 0.250000
vt 0.625000 0.250000
vt 0.375000 0.250000
vt 0.375000 0.250000
vt 0.625000 0.250000
vt 0.125000 0.000000
vt 0.375000 0.000000
vt 0.375000 0.250000
vt 0.125000 0.250000
vt 0.375000 0.250000
vt 0.125000 0.250000
vt 0.125000 0.250000
vt 0.375000 0.250000
vt 0.327019 0.250000
vt 0.375000 0.297981
vt 0.327019 0.000000
vt 0.375000 0.952019
vt 0.327019 0.000000
vt 0.327019 0.250000
vt 0.286538 0.000000
vt 0.375000 0.911538
vt 0.286538 0.250000
vt 0.375000 0.338462
vt 0.286538 0.250000
vt 0.286538 0.000000
vt 0.327019 0.250000
vt 0.286538 0.250000
vt 0.286538 0.250000
vt 0.327019 0.250000
vt 0.194735 0.000000
vt 0.375000 0.819735
vt 0.194735 0.250000
vt 0.375000 0.430265
vt 0.194735 0.250000
vt 0.194735 0.250000
vt 0.194735 0.250000
vt 0.194735 0.000000
vt 0.175100 0.000000
vt 0.375000 0.800100
vt 0.175100 0.250000
vt 0.375000 0.449900
vt 0.175100 0.250000
vt 0.175100 0.250000
vt 0.175100 0.250000
vt 0.175100 0.000000
vt 0.137972 0.000000
vt 0.375000 0.762972
vt 0.137972 0.250000
vt 0.375000 0.487028
vt 0.137972 0.250000
vt 0.137972 0.250000
vt 0.137972 0.250000
vt 0.137972 0.000000
vt 0.131925 0.000000
vt 0.375000 0.756925
vt 0.131925 0.250000
vt 0.375000 0.493075
vt 0.131925 0.250000
vt 0.131925 0.250000
vt 0.131925 0.250000
vt 0.131925 0.000000
vn 0.000000 0.000000 1.000000
vn 0.000000 0.000000 1.000000
vn 0.000000 0.000000 1.000000
vn 0.000000 0.000000 1.000000
vn 0.000000 1.000000 0.000000
vn 0.000000 1.000000 0.000000
vn 0.000000 1.000000 0.000000
vn 0.000000 1.000000 0.000000
vn 0.000000 1.000000 0.000000
vn 0.000000 1.000000 0.000000
vn 0.000000 1.000000 0.000000
vn 0.000000 1.000000 0.000000
vn 0.000000 1.000000 0.000000
vn 0.000000 1.000000 0.000000
vn 0.000000 0.000000 -1.000000
vn 0.000000 0.000000 -1.000000
vn 0.000000 0.000000 -1.000000
vn 0.000000 0.000000 -1.000000
vn 0.000000 -1.000000 0.000000
vn 0.000000 -1.000000 0.000000
vn 0.000000 -1.000000 0.000000
vn 0.000000 -1.000000 0.000000
vn 0.000000 -1.000000 0.000000
vn 0.000000 -1.000000 0.000000
vn 0.000000 -1.000000 0.000000
vn 0.000000 -1.000000 0.000000
vn 0.000000 -1.000000 0.000000
vn 0.000000 -1.000000 0.000000
vn 1.000000 0.000000 0.000000
vn 1.000000 0.000000 0.000000
vn 1.000000 0.000000 0.000000
vn 1.000000 0.000000 0.000000
vn -1.000000 -0.000000 -0.000000
vn -1.000000 -0.000000 -0.000000
vn -1.000000 -0.000000 -0.000000
vn -1.000000 -0.000000 -0.000000
vn -1.000000 -0.000000 -0.000000
vn -1.000000 -0.000000 -0.000000
vn -1.000000 -0.000000 -0.000000
vn -1.000000 -0.000003 0.000000
vn -1.000000 -0.000003 0.000000
vn -1.000000 -0.000003 0.000000
vn -1.000000 -0.000003 0.000000
vn -1.000000 -0.000003 0.000000
vn -1.000000 -0.000003 0.000000
vn -1.000000 -0.000003 0.000000
vn -1.000000 -0.000003 0.000000
vn -1.000000 -0.000000 -0.000000
vn 0.000000 -1.000000 0.000000
vn 0.000000 -1.000000 0.000000
vn 1.000000 0.000000 0.000000
vn 1.000000 0.000000 0.000000
vn 0.000000 1.000000 0.000000
vn 0.000000 1.000000 0.000000
vn 0.000000 1.000000 0.000000
vn 0.000000 1.000000 0.000000
vn -1.000000 0.000000 0.000000
vn -1.000000 0.000000 0.000000
vn -1.000000 0.000000 0.000000
vn -1.000000 0.000000 0.000000
vn 0.000000 0.000000 -1.000000
vn 0.000000 0.000000 -1.000000
vn 0.000000 0.000000 -1.000000
vn 0.000000 0.000000 -1.000000
vn -1.000000 0.000000 0.000000
vn -1.000000 0.000000 0.000000
vn 0.000000 0.000000 1.000000
vn 0.000000 0.000000 1.000000
vn 1.000000 0.000000 0.000000
vn 1.000000 0.000000 0.000000
vn 0.000000 -1.000000 0.000000
vn 0.000000 -1.000000 0.000000
vn 0.000000 -1.000000 0.000000
vn 0.000000 -1.000000 0.000000
vn 0.000000 -1.000000 0.000000
vn 0.000000 -1.000000 0.000000
vn 0.000000 -1.000000 0.000000
vn 0.000000 -1.000000 0.000000
vn 0.000000 0.000000 1.000000
vn 0.000000 0.000000 1.000000
vn 0.000000 0.000000 1.000000
vn 0.000000 0.000000 1.000000
vn 0.000000 1.000000 0.000000
vn 0.000000 1.000000 0.000000
vn 0.000000 1.000000 0.000000
vn 0.000000 1.000000 0.000000
vn 0.000000 0.000000 -1.000000
vn 0.000000 0.000000 -1.000000
vn 1.000000 0.000000 0.000000
vn 1.000000 0.000000 0.000000
vn 1.000000 0.000000 0.000000
vn 1.000000 0.000000 0.000000
vn 1.000000 0.000000 0.000000
vn 1.000000 0.000000 0.000000
vn 1.000000 0.000000 0.000000
vn 1.000000 0.000000 0.000000
vn 1.000000 0.000000 0.000000
vn 1.000000 0.000000 0.000000
vn 1.000000 0.000000 0.000000
vn 1.000000 0.000000 0.000000
vn 1.000000 0.000000 0.000000
vn 1.000000 0.000000 0.000000
vn 1.000000 0.000000 0.000000
vn 1.000000 0.000000 0.000000
vn 0.000000 0.000000 -1.000000
vn 0.000000 0.000000 -1.000000
vn -1.000000 -0.000000 -0.000000
vn -1.000000 -0.000000 -0.000000
vn -1.000000 -0.000000 -0.000000
vn -1.000000 -0.000000 -0.000000
vn -1.000000 -0.000000 -0.000000
vn -1.000000 -0.000000 -0.000000
vn -1.000000 -0.000000 -0.000000
vn -1.000000 -0.000000 -0.000000
vn 0.000000 0.000000 1.000000
vn 0.000000 0.000000 1.000000
s 1
g Paredes
usemtl initialShadingGroup
f 9/15/1 10/16/2 11/17/3 12/18/4
s off
f 4/4/5 6/6/6 5/5/7 56/74/8 50/66/9 44/58/10 38/50/11 30/40/12 25/32/13 3/3/14
s 2
f 5/5/15 6/6/16 8/8/17 7/7/18
s 3
f 26/34/19 29/38/20 37/48/21 43/56/22 49/64/23 55/72/24 7/7/25 8/8/26 2/10/27 1/9/28
s 4
f 2/2/29 8/11/30 6/12/31 4/4/32
s 5
f 28/36/33 31/41/34 41/53/35 47/61/36 53/69/37 59/77/38 20/26/39 17/23/40 60/78/41 54/70/42 48/62/43 42/54/44 32/42/45 27/35/46 18/24/47 19/25/48
s 3
f 1/1/28 2/2/27 10/16/49 9/15/50
s 4
f 2/2/29 4/4/32 11/17/51 10/16/52
s off
f 14/19/53 13/20/54 15/21/55 16/22/56
s 6
f 3/3/57 1/1/58 9/15/59 12/18/60
s off
f 4/4/61 3/3/62 13/20/63 14/19/64
s 6
f 3/3/57 12/18/60 15/21/65 13/20/66
s 1
f 12/18/4 11/17/3 16/22/67 15/21/68
s 4
f 11/17/51 4/4/32 14/19/69 16/22/70
s 3
f 27/35/71 32/42/72 42/54/73 48/62/74 54/70/75 60/78/76 17/23/77 7/13/25 55/71/24 49/63/23 43/55/22 37/47/21 29/37/20 26/33/19 1/1/28 18/24/78
s 7
f 1/1/79 3/3/80 19/25/81 18/24/82
s off
f 24/30/83 21/27/84 22/28/85 23/29/86
s 2
f 5/14/15 7/13/18 17/23/87 20/26/88
s off
f 21/27/89 3/3/90 25/31/91 33/43/92 34/44/93 30/39/94 38/49/95 39/51/96 45/59/97 44/57/98 50/65/99 51/67/100 57/75/101 56/73/102 5/14/103 22/28/104
s 2
f 20/26/88 23/29/105 22/28/106 5/14/15
s 5
f 58/76/107 52/68/108 53/69/37 47/61/36 46/60/109 40/52/110 41/53/35 31/41/34 35/45/111 36/46/112 28/36/33 19/25/48 24/30/113 23/29/114 20/26/39 59/77/38
s 7
f 3/3/80 21/27/115 24/30/116 19/25/81
g default
v -12.106025 0.806569 16.206602
v -11.659284 0.806569 16.536251
v -12.106025 17.553249 16.206602
v -11.659284 17.553249 16.536251
v -6.870702 17.553249 9.111691
v -6.423961 17.553249 9.441339
v -6.870702 0.806569 9.111691
v -6.423961 0.806569 9.441339
vt 0.375000 0.000000
vt 0.625000 0.000000
vt 0.375000 0.250000
vt 0.625000 0.250000
vt 0.375000 0.500000
vt 0.625000 0.500000
vt 0.375000 0.750000
vt 0.625000 0.750000
vt 0.375000 1.000000
vt 0.625000 1.000000
vt 0.875000 0.000000
vt 0.875000 0.250000
vt 0.125000 0.000000
vt 0.125000 0.250000
vn -0.593749 0.000000 0.804650
vn -0.593749 0.000000 0.804650
vn -0.593749 0.000000 0.804650
vn -0.593749 0.000000 0.804650
vn 0.000000 1.000000 0.000000
vn 0.000000 1.000000 0.000000
vn 0.000000 1.000000 0.000000
vn 0.000000 1.000000 0.000000
vn 0.593749 0.000000 -0.804650
vn 0.593749 0.000000 -0.804650
vn 0.593749 0.000000 -0.804650
vn 0.593749 0.000000 -0.804650
vn 0.000000 -1.000000 0.000000
vn 0.000000 -1.000000 0.000000
vn 0.000000 -1.000000 0.000000
vn 0.000000 -1.000000 0.000000
vn 0.804650 0.000000 0.593750
vn 0.804650 0.000000 0.593750
vn 0.804650 0.000000 0.593750
vn 0.804650 0.000000 0.593750
vn -0.804650 0.000000 -0.593750
vn -0.804650 0.000000 -0.593750
vn -0.804650 0.000000 -0.593750
vn -0.804650 0.000000 -0.593750
s off
g Puerta_1
usemtl initialShadingGroup
f 61/79/117 62/80/118 64/82/119 63/81/120
f 63/81/121 64/82/122 66/84/123 65/83/124
f 65/83/125 66/84/126 68/86/127 67/85/128
f 67/85/129 68/86/130 62/88/131 61/87/132
f 62/80/133 68/89/134 66/90/135 64/82/136
f 67/91/137 61/79/138 63/81/139 65/92/140
g default
v -12.106025 0.806569 -32.801120
v -11.659284 0.806569 -32.471472
v -12.106025 17.553249 -32.801120
v -11.659284 17.553249 -32.471472
v -6.870702 17.553249 -39.896032
v -6.423961 17.553249 -39.566383
v -6.870702 0.806569 -39.896032
v -6.423961 0.806569 -39.566383
vt 0.375000 0.000000
vt 0.625000 0.000000
vt 0.375000 0.250000
vt 0.625000 0.250000
vt 0.375000 0.500000
vt 0.625000 0.500000
vt 0.375000 0.750000
vt 0.625000 0.750000
vt 0.375000 1.000000
vt 0.625000 1.000000
vt 0.875000 0.000000
vt 0.875000 0.250000
vt 0.125000 0.000000
vt 0.125000 0.250000
vn -0.593749 0.000000 0.804650
vn -0.593749 0.000000 0.804650
vn -0.593749 0.000000 0.804650
vn -0.593749 0.000000 0.804650
vn 0.000000 1.000000 0.000000
vn 0.000000 1.000000 0.000000
vn 0.000000 1.000000 0.000000
vn 0.000000 1.000000 0.000000
vn 0.593749 0.000000 -0.804650
vn 0.593749 0.000000 -0.804650
vn 0.593749 0.000000 -0.804650
vn 0.593749 0.000000 -0.804650
vn 0.000000 -1.000000 0.000000
vn 0.000000 -1.000000 0.000000
vn 0.000000 -1.000000 0.000000
vn 0.000000 -1.000000 0.000000
vn 0.804650 0.000000 0.593750
vn 0.804650 0.000000 0.593750
vn 0.804650 0.000000 0.593750
vn 0.804650 0.000000 0.593750
vn -0.804650 0.000000 -0.593750
vn -0.804650 0.000000 -0.593750
vn -0.804650 0.000000 -0.593750
vn -0.804650 0.000000 -0.593750
s off
g Puerta_2
usemtl initialShadingGroup
f 69/93/141 70/94/142 72/96/143 71/95/144
f 71/95/145 72/96/146 74/98/147 73/97/148
f 73/97/149 74/98/150 76/100/151 75/99/152
f 75/99/153 76/100/154 70/102/155 69/101/156
f 70/94/157 76/103/158 74/104/159 72/96/160
f 75/105/161 69/93/162 71/95/163 73/106/164
g default
v -12.106025 0.806569 -94.789970
v -11.659284 0.806569 -94.460322
v -12.106025 17.553249 -94.789970
v -11.659284 17.553249 -94.460322
v -6.870702 17.553249 -101.884881
v -6.423961 17.553249 -101.555233
v -6.870702 0.806569 -101.884881
v -6.423961 0.806569 -101.555233
vt 0.375000 0.000000
vt 0.625000 0.000000
vt 0.375000 0.250000
vt 0.625000 0.250000
vt 0.375000 0.500000
vt 0.625000 0.500000
vt 0.375000 0.750000
vt 0.625000 0.750000
vt 0.375000 1.000000
vt 0.625000 1.000000
vt 0.875000 0.000000
vt 0.875000 0.250000
vt 0.125000 0.000000
vt 0.125000 0.250000
vn -0.593749 0.000000 0.804650
vn -0.593749 0.000000 0.804650
vn -0.593749 0.000000 0.804650
vn -0.593749 0.000000 0.804650
vn 0.000000 1.000000 0.000000
vn 0.000000 1.000000 0.000000
vn 0.000000 1.000000 0.000000
vn 0.000000 1.000000 0.000000
vn 0.593749 0.000000 -0.804650
vn 0.593749 0.000000 -0.804650
vn 0.593749 0.000000 -0.804650
vn 0.593749 0.000000 -0.804650
vn 0.000000 -1.000000 0.000000
vn 0.000000 -1.000000 0.000000
vn 0.000000 -1.000000 0.000000
vn 0.000000 -1.000000 0.000000
vn 0.804650 0.000000 0.593750
vn 0.804650 0.000000 0.593750
vn 0.804650 0.000000 0.593750
vn 0.804650 0.000000 0.593750
vn -0.804650 0.000000 -0.593750
vn -0.804650 0.000000 -0.593750
vn -0.804650 0.000000 -0.593750
vn -0.804650 0.000000 -0.593750
s off
g Puerta_3
usemtl initialShadingGroup
f 77/107/165 78/108/166 80/110/167 79/109/168
f 79/109/169 80/110/170 82/112/171 81/111/172
f 81/111/173 82/112/174 84/114/175 83/113/176
f 83/113/177 84/114/178 78/116/179 77/115/180
f 78/108/181 84/117/182 82/118/183 80/110/184
f 83/119/185 77/107/186 79/109/187 81/120/188
