# This file uses centimeters as units for non-parametric coordinates.

mtllib Plane.mtl
g default
v -8.086189 -0.000000 8.191537
v 8.216216 -0.000000 8.191537
v -8.086189 0.000000 -8.110868
v 8.216216 0.000000 -8.110868
vt 0.000000 0.000000
vt 1.000000 0.000000
vt 0.000000 1.000000
vt 1.000000 1.000000
vn 0.000000 1.000000 0.000000
vn 0.000000 1.000000 0.000000
vn 0.000000 1.000000 0.000000
vn 0.000000 1.000000 0.000000
s off
g pPlane1
usemtl initialShadingGroup
f 1/1/1 2/2/2 4/4/3 3/3/4
g default
v -8.086189 -0.000000 8.191537
v 8.216216 -0.000000 8.191537
v -8.086189 0.000000 -8.110868
v 8.216216 0.000000 -8.110868
vt 0.000000 0.000000
vt 1.000000 0.000000
vt 0.000000 1.000000
vt 1.000000 1.000000
vn 0.000000 1.000000 0.000000
vn 0.000000 1.000000 0.000000
vn 0.000000 1.000000 0.000000
vn 0.000000 1.000000 0.000000
s off
g pPlane1
f 5/5/5 6/6/6 8/8/7 7/7/8
